<svg xmlns="http://www.w3.org/2000/svg" xmlns:xlink="http://www.w3.org/1999/xlink" viewBox="0,0,256,256" width="128px" height="128px" fill-rule="nonzero"><defs><linearGradient x1="31.999" y1="7.249" x2="31.999" y2="57.273" gradientUnits="userSpaceOnUse" id="color-1"><stop offset="0" stop-color="#03a6a1"></stop><stop offset="1" stop-color="#ff4f0f"></stop></linearGradient><linearGradient x1="30" y1="7.249" x2="30" y2="57.273" gradientUnits="userSpaceOnUse" id="color-2"><stop offset="0" stop-color="#03a6a1"></stop><stop offset="1" stop-color="#ff4f0f"></stop></linearGradient><linearGradient x1="30" y1="27" x2="30" y2="37.762" gradientUnits="userSpaceOnUse" id="color-3"><stop offset="0" stop-color="#ffa673"></stop><stop offset="1" stop-color="#03a6a1"></stop></linearGradient></defs><g fill="none" fill-rule="nonzero" stroke="none" stroke-width="1" stroke-linecap="butt" stroke-linejoin="miter" stroke-miterlimit="10" stroke-dasharray="" stroke-dashoffset="0" font-family="none" font-weight="none" font-size="none" text-anchor="none" style="mix-blend-mode: normal"><g transform="scale(4,4)"><path d="M57.645,31.864c-0.356,-0.541 -0.939,-0.864 -1.558,-0.864h-2.111c-0.527,-13 -11.078,-23.001 -23.976,-23.001c-13.234,0 -24.001,10.767 -24.001,24.001c0,13.234 10.767,24.001 24.001,24.001c6.267,0 12.196,-2.4 16.696,-6.759l-1.391,-1.438c-4.125,3.996 -9.561,6.197 -15.305,6.197c-12.131,0 -22.001,-9.87 -22.001,-22.001c0,-12.131 9.87,-22.001 22.001,-22.001c11.796,0 21.45,10.001 21.975,21.001h-2.061c-0.619,0 -1.202,0.323 -1.559,0.864c-0.397,0.605 -0.466,1.397 -0.177,2.069l2.268,5.283c0.472,1.1 1.45,1.783 2.554,1.783c1.104,0 2.082,-0.684 2.554,-1.783l2.268,-5.283c0.289,-0.671 0.221,-1.464 -0.177,-2.069zM55.984,33.145l-2.268,5.283c-0.313,0.727 -1.119,0.727 -1.432,0l-2.268,-5.283c-0.023,-0.056 -0.016,-0.11 -0.006,-0.145h5.981c0.011,0.035 0.017,0.089 -0.007,0.145z" fill="url(#color-1)"></path><path d="M29.864,24.644c0.355,0.234 0.776,0.354 1.199,0.354c0.296,0 0.593,-0.058 0.869,-0.177l5.284,-2.268c1.101,-0.471 1.784,-1.45 1.784,-2.553c0,-1.103 -0.684,-2.082 -1.783,-2.554l-5.284,-2.268c-0.671,-0.288 -1.464,-0.221 -2.068,0.177c-0.542,0.356 -0.865,0.938 -0.865,1.558v2.138c-7,0.513 -12,6.118 -12,12.949c0,7.168 5.832,13 13,13c7.168,0 13,-6 13,-13h-2c0,6 -4.935,11 -11,11c-6.065,0 -11,-4.935 -11,-11c0,-5.728 4,-10.442 10,-10.95v2.036c0,0.62 0.323,1.202 0.864,1.558zM31,17.009c0,-0.012 0.087,-0.017 0.144,0.007l5.284,2.268c0.363,0.156 0.572,0.417 0.572,0.716c0,0.299 -0.209,0.56 -0.572,0.716l-5.284,2.268c-0.057,0.023 -0.144,0.018 -0.144,0.006z" fill="url(#color-2)"></path><path d="M30,28c-2.20914,0 -4,1.79086 -4,4c0,2.20914 1.79086,4 4,4c2.20914,0 4,-1.79086 4,-4c0,-2.20914 -1.79086,-4 -4,-4z" fill="url(#color-3)"></path></g></g></svg>